<svg width="429" height="300" viewBox="0 0 429 300" fill="none" xmlns="http://www.w3.org/2000/svg">
<path d="M65.9999 24.9843L65.9999 256.984" stroke="#0D98D3" stroke-width="4" stroke-linecap="square"/>
<line x1="70" y1="212.5" x2="427" y2="212.5" stroke="#DBEEF5"/>
<line x1="70" y1="165.5" x2="427" y2="165.5" stroke="#DBEEF5"/>
<line x1="66" y1="118.5" x2="423" y2="118.5" stroke="#DBEEF5"/>
<line x1="70" y1="71.5" x2="427" y2="71.5" stroke="#DBEEF5"/>
<line x1="70" y1="24.5" x2="427" y2="24.5" stroke="#DBEEF5"/>
<line x1="113.5" y1="25" x2="113.5" y2="257" stroke="#DBEEF5"/>
<line x1="157.5" y1="25" x2="157.5" y2="257" stroke="#DBEEF5"/>
<line x1="201.5" y1="25" x2="201.5" y2="257" stroke="#DBEEF5"/>
<line x1="245.5" y1="25" x2="245.5" y2="257" stroke="#DBEEF5"/>
<line x1="289.5" y1="25" x2="289.5" y2="257" stroke="#DBEEF5"/>
<line x1="333.5" y1="25" x2="333.5" y2="257" stroke="#DBEEF5"/>
<line x1="377.5" y1="25" x2="377.5" y2="257" stroke="#DBEEF5"/>
<path d="M68 257H427" stroke="#0D98D3" stroke-width="4" stroke-linecap="square"/>
<line x1="36" y1="24" x2="66" y2="24" stroke="#03A0E3" stroke-width="2"/>
<line x1="36" y1="71" x2="66" y2="71" stroke="#03A0E3" stroke-width="2"/>
<line x1="36" y1="118" x2="66" y2="118" stroke="#03A0E3" stroke-width="2"/>
<line x1="36" y1="165" x2="66" y2="165" stroke="#03A0E3" stroke-width="2"/>
<line x1="36" y1="212" x2="66" y2="212" stroke="#03A0E3" stroke-width="2"/>
<path d="M3.756 21.688C3.676 23.256 3.636 24.504 3.636 25.432C3.636 25.912 3.648 26.368 3.672 26.8C3.736 26.848 3.86 26.872 4.044 26.872L4.32 26.86C4.432 26.844 4.536 26.836 4.632 26.836C4.84 26.836 5 26.872 5.112 26.944C5.232 27.016 5.292 27.156 5.292 27.364C5.292 27.564 5.232 27.72 5.112 27.832C5 27.944 4.764 28 4.404 28C4.1 28 3.732 27.976 3.3 27.928C3.196 27.92 3.096 27.912 3 27.904C2.904 27.896 2.816 27.892 2.736 27.892C2.296 27.9 1.968 27.916 1.752 27.94C1.536 27.964 1.292 27.976 1.02 27.976C0.772 27.976 0.648 27.788 0.648 27.412C0.648 27.052 0.88 26.872 1.344 26.872C1.416 26.872 1.532 26.88 1.692 26.896C1.828 26.92 1.972 26.932 2.124 26.932C2.212 26.932 2.284 26.928 2.34 26.92C2.348 26.384 2.376 25.604 2.424 24.58C2.472 23.38 2.496 22.492 2.496 21.916C2.456 21.924 2.316 21.98 2.076 22.084C1.708 22.268 1.436 22.36 1.26 22.36C1.164 22.36 1.076 22.312 0.996 22.216C0.916 22.112 0.876 21.992 0.876 21.856C0.876 21.72 0.96 21.588 1.128 21.46C1.296 21.332 1.568 21.164 1.944 20.956C2.152 20.852 2.352 20.736 2.544 20.608C2.592 20.576 2.66 20.544 2.748 20.512C2.844 20.48 2.916 20.464 2.964 20.464C3.172 20.464 3.36 20.508 3.528 20.596C3.704 20.676 3.792 20.784 3.792 20.92L3.756 21.688ZM11.4344 21.232C11.6984 21.64 11.9104 22.108 12.0704 22.636C12.2304 23.156 12.3104 23.688 12.3104 24.232C12.3104 24.88 12.1984 25.496 11.9744 26.08C11.7584 26.664 11.4304 27.14 10.9904 27.508C10.5584 27.876 10.0304 28.06 9.40641 28.06C8.82241 28.06 8.28641 27.912 7.79841 27.616C7.31041 27.312 6.94241 26.96 6.69441 26.56C6.51041 26.264 6.37041 25.932 6.27441 25.564C6.17841 25.188 6.13041 24.812 6.13041 24.436C6.13041 23.78 6.26641 23.14 6.53841 22.516C6.81841 21.892 7.20241 21.392 7.69041 21.016C8.15441 20.672 8.68641 20.5 9.28641 20.5C9.95041 20.5 10.6664 20.744 11.4344 21.232ZM8.21841 22.06C8.14641 22.18 8.07441 22.288 8.00241 22.384C7.82641 22.648 7.69841 22.872 7.61841 23.056C7.53841 23.232 7.46641 23.504 7.40241 23.872C7.37041 24.04 7.35441 24.236 7.35441 24.46C7.35441 25.028 7.46641 25.52 7.69041 25.936C7.92241 26.344 8.23841 26.62 8.63841 26.764C8.83041 26.836 9.04641 26.872 9.28641 26.872C9.88641 26.872 10.3384 26.608 10.6424 26.08C10.9544 25.544 11.1104 24.884 11.1104 24.1C11.1104 23.372 10.9744 22.776 10.7024 22.312C10.4304 21.84 10.0104 21.604 9.44241 21.604C9.21041 21.604 9.01041 21.64 8.84241 21.712C8.68241 21.784 8.47441 21.9 8.21841 22.06ZM18.8289 21.232C19.0929 21.64 19.3049 22.108 19.4649 22.636C19.6249 23.156 19.7049 23.688 19.7049 24.232C19.7049 24.88 19.5929 25.496 19.3689 26.08C19.1529 26.664 18.8249 27.14 18.3849 27.508C17.9529 27.876 17.4249 28.06 16.8009 28.06C16.2169 28.06 15.6809 27.912 15.1929 27.616C14.7049 27.312 14.3369 26.96 14.0889 26.56C13.9049 26.264 13.7649 25.932 13.6689 25.564C13.5729 25.188 13.5249 24.812 13.5249 24.436C13.5249 23.78 13.6609 23.14 13.9329 22.516C14.2129 21.892 14.5969 21.392 15.0849 21.016C15.5489 20.672 16.0809 20.5 16.6809 20.5C17.3449 20.5 18.0609 20.744 18.8289 21.232ZM15.6129 22.06C15.5409 22.18 15.4689 22.288 15.3969 22.384C15.2209 22.648 15.0929 22.872 15.0129 23.056C14.9329 23.232 14.8609 23.504 14.7969 23.872C14.7649 24.04 14.7489 24.236 14.7489 24.46C14.7489 25.028 14.8609 25.52 15.0849 25.936C15.3169 26.344 15.6329 26.62 16.0329 26.764C16.2249 26.836 16.4409 26.872 16.6809 26.872C17.2809 26.872 17.7329 26.608 18.0369 26.08C18.3489 25.544 18.5049 24.884 18.5049 24.1C18.5049 23.372 18.3689 22.776 18.0969 22.312C17.8249 21.84 17.4049 21.604 16.8369 21.604C16.6049 21.604 16.4049 21.64 16.2369 21.712C16.0769 21.784 15.8689 21.9 15.6129 22.06ZM27.3155 20.296C27.4275 20.296 27.5115 20.34 27.5675 20.428C27.6235 20.516 27.6515 20.616 27.6515 20.728C27.6515 20.88 27.5875 21.032 27.4595 21.184L26.9915 21.784C26.0795 22.976 25.3475 23.964 24.7955 24.748C24.2435 25.532 23.7115 26.392 23.1995 27.328C22.9515 27.808 22.6675 28.048 22.3475 28.048C22.2035 28.048 22.0755 28.012 21.9635 27.94C21.8515 27.86 21.7955 27.728 21.7955 27.544C21.7955 27.424 21.8315 27.324 21.9035 27.244C22.1675 26.868 22.6395 26.168 23.3195 25.144C23.9595 24.192 24.4875 23.416 24.9035 22.816C25.3275 22.208 25.7395 21.656 26.1395 21.16C26.1715 21.12 26.2475 21.02 26.3675 20.86C26.4955 20.7 26.6395 20.568 26.7995 20.464C26.9595 20.352 27.1315 20.296 27.3155 20.296ZM22.5635 20.428C22.8035 20.428 23.0475 20.484 23.2955 20.596C23.5515 20.708 23.7635 20.868 23.9315 21.076C24.0995 21.276 24.1835 21.5 24.1835 21.748C24.1835 22.1 24.1075 22.42 23.9555 22.708C23.8035 22.996 23.5955 23.224 23.3315 23.392C23.0675 23.552 22.7755 23.632 22.4555 23.632C21.9515 23.632 21.5475 23.484 21.2435 23.188C20.9395 22.884 20.7875 22.488 20.7875 22C20.7875 21.488 20.9435 21.1 21.2555 20.836C21.5755 20.564 22.0115 20.428 22.5635 20.428ZM22.2995 22.72C22.8755 22.72 23.1635 22.412 23.1635 21.796C23.1635 21.644 23.1075 21.532 22.9955 21.46C22.8915 21.388 22.7235 21.352 22.4915 21.352C22.2355 21.352 22.0395 21.42 21.9035 21.556C21.7755 21.684 21.7115 21.832 21.7115 22C21.7115 22.184 21.7675 22.352 21.8795 22.504C21.9915 22.648 22.1315 22.72 22.2995 22.72ZM28.3955 26.32C28.3955 26.632 28.3075 26.912 28.1315 27.16C27.9635 27.4 27.7355 27.588 27.4475 27.724C27.1675 27.86 26.8715 27.928 26.5595 27.928C26.2955 27.928 26.0475 27.864 25.8155 27.736C25.5835 27.6 25.3955 27.416 25.2515 27.184C25.1155 26.952 25.0475 26.692 25.0475 26.404C25.0475 26.108 25.1195 25.828 25.2635 25.564C25.4155 25.3 25.6315 25.088 25.9115 24.928C26.1915 24.76 26.5195 24.676 26.8955 24.676C27.3835 24.676 27.7555 24.82 28.0115 25.108C28.2675 25.388 28.3955 25.792 28.3955 26.32ZM26.7995 25.588C26.5675 25.588 26.3795 25.648 26.2355 25.768C26.0995 25.888 26.0315 26.076 26.0315 26.332C26.0315 26.556 26.0875 26.728 26.1995 26.848C26.3115 26.968 26.4315 27.028 26.5595 27.028C27.1755 27.028 27.4835 26.752 27.4835 26.2C27.4835 26.016 27.4235 25.868 27.3035 25.756C27.1835 25.644 27.0155 25.588 26.7995 25.588Z" fill="black"/>
<path d="M9.584 72.028C10.072 72.22 10.464 72.476 10.76 72.796C11.056 73.116 11.204 73.484 11.204 73.9C11.204 74.02 11.176 74.172 11.12 74.356C11.072 74.532 11.004 74.684 10.916 74.812C10.388 75.628 9.456 76.036 8.12 76.036C7.424 76.036 6.82 75.896 6.308 75.616C5.796 75.328 5.54 74.9 5.54 74.332C5.54 73.524 6.096 72.832 7.208 72.256C6.168 71.872 5.648 71.304 5.648 70.552C5.648 70.096 5.776 69.712 6.032 69.4C6.288 69.088 6.624 68.856 7.04 68.704C7.464 68.552 7.924 68.476 8.42 68.476C8.788 68.476 9.164 68.564 9.548 68.74C9.932 68.908 10.196 69.128 10.34 69.4C10.484 69.704 10.556 69.988 10.556 70.252C10.556 70.596 10.484 70.912 10.34 71.2C10.204 71.488 9.952 71.764 9.584 72.028ZM8.336 71.668C8.592 71.5 8.788 71.364 8.924 71.26C9.068 71.148 9.188 71.016 9.284 70.864C9.388 70.704 9.44 70.52 9.44 70.312C9.44 70.072 9.344 69.872 9.152 69.712C8.96 69.552 8.728 69.472 8.456 69.472C7.872 69.472 7.464 69.572 7.232 69.772C7.008 69.972 6.896 70.208 6.896 70.48C6.896 70.696 6.968 70.88 7.112 71.032C7.256 71.176 7.416 71.292 7.592 71.38C7.776 71.46 8.024 71.556 8.336 71.668ZM9.932 73.816C9.932 73.68 9.844 73.536 9.668 73.384C9.5 73.232 9.3 73.1 9.068 72.988C8.836 72.868 8.64 72.788 8.48 72.748C8.208 72.86 7.908 73.04 7.58 73.288C7.252 73.528 7.052 73.704 6.98 73.816C6.9 73.928 6.844 74.024 6.812 74.104C6.788 74.176 6.776 74.264 6.776 74.368C6.776 74.488 6.848 74.604 6.992 74.716C7.136 74.82 7.308 74.904 7.508 74.968C7.708 75.032 7.88 75.064 8.024 75.064C8.592 75.064 9.052 74.952 9.404 74.728C9.756 74.496 9.932 74.192 9.932 73.816ZM17.4422 69.232C17.7062 69.64 17.9182 70.108 18.0782 70.636C18.2382 71.156 18.3182 71.688 18.3182 72.232C18.3182 72.88 18.2062 73.496 17.9822 74.08C17.7662 74.664 17.4382 75.14 16.9982 75.508C16.5662 75.876 16.0382 76.06 15.4142 76.06C14.8302 76.06 14.2942 75.912 13.8062 75.616C13.3182 75.312 12.9502 74.96 12.7022 74.56C12.5182 74.264 12.3782 73.932 12.2822 73.564C12.1862 73.188 12.1382 72.812 12.1382 72.436C12.1382 71.78 12.2742 71.14 12.5462 70.516C12.8262 69.892 13.2102 69.392 13.6982 69.016C14.1622 68.672 14.6942 68.5 15.2942 68.5C15.9582 68.5 16.6742 68.744 17.4422 69.232ZM14.2262 70.06C14.1542 70.18 14.0822 70.288 14.0102 70.384C13.8342 70.648 13.7062 70.872 13.6262 71.056C13.5462 71.232 13.4742 71.504 13.4102 71.872C13.3782 72.04 13.3622 72.236 13.3622 72.46C13.3622 73.028 13.4742 73.52 13.6982 73.936C13.9302 74.344 14.2462 74.62 14.6462 74.764C14.8382 74.836 15.0542 74.872 15.2942 74.872C15.8942 74.872 16.3462 74.608 16.6502 74.08C16.9622 73.544 17.1182 72.884 17.1182 72.1C17.1182 71.372 16.9822 70.776 16.7102 70.312C16.4382 69.84 16.0182 69.604 15.4502 69.604C15.2182 69.604 15.0182 69.64 14.8502 69.712C14.6902 69.784 14.4822 69.9 14.2262 70.06ZM25.9288 68.296C26.0408 68.296 26.1248 68.34 26.1808 68.428C26.2368 68.516 26.2648 68.616 26.2648 68.728C26.2648 68.88 26.2008 69.032 26.0728 69.184L25.6048 69.784C24.6928 70.976 23.9608 71.964 23.4088 72.748C22.8568 73.532 22.3248 74.392 21.8128 75.328C21.5648 75.808 21.2808 76.048 20.9608 76.048C20.8168 76.048 20.6888 76.012 20.5768 75.94C20.4648 75.86 20.4088 75.728 20.4088 75.544C20.4088 75.424 20.4448 75.324 20.5168 75.244C20.7808 74.868 21.2528 74.168 21.9328 73.144C22.5728 72.192 23.1008 71.416 23.5168 70.816C23.9408 70.208 24.3528 69.656 24.7528 69.16C24.7848 69.12 24.8608 69.02 24.9808 68.86C25.1088 68.7 25.2528 68.568 25.4128 68.464C25.5728 68.352 25.7448 68.296 25.9288 68.296ZM21.1768 68.428C21.4168 68.428 21.6608 68.484 21.9088 68.596C22.1648 68.708 22.3768 68.868 22.5448 69.076C22.7128 69.276 22.7968 69.5 22.7968 69.748C22.7968 70.1 22.7208 70.42 22.5688 70.708C22.4168 70.996 22.2088 71.224 21.9448 71.392C21.6808 71.552 21.3888 71.632 21.0688 71.632C20.5648 71.632 20.1608 71.484 19.8568 71.188C19.5528 70.884 19.4008 70.488 19.4008 70C19.4008 69.488 19.5568 69.1 19.8688 68.836C20.1888 68.564 20.6248 68.428 21.1768 68.428ZM20.9128 70.72C21.4888 70.72 21.7768 70.412 21.7768 69.796C21.7768 69.644 21.7208 69.532 21.6088 69.46C21.5048 69.388 21.3368 69.352 21.1048 69.352C20.8488 69.352 20.6528 69.42 20.5168 69.556C20.3888 69.684 20.3248 69.832 20.3248 70C20.3248 70.184 20.3808 70.352 20.4928 70.504C20.6048 70.648 20.7448 70.72 20.9128 70.72ZM27.0088 74.32C27.0088 74.632 26.9208 74.912 26.7448 75.16C26.5768 75.4 26.3488 75.588 26.0608 75.724C25.7808 75.86 25.4848 75.928 25.1728 75.928C24.9088 75.928 24.6608 75.864 24.4288 75.736C24.1968 75.6 24.0088 75.416 23.8648 75.184C23.7288 74.952 23.6608 74.692 23.6608 74.404C23.6608 74.108 23.7328 73.828 23.8768 73.564C24.0288 73.3 24.2448 73.088 24.5248 72.928C24.8048 72.76 25.1328 72.676 25.5088 72.676C25.9968 72.676 26.3688 72.82 26.6248 73.108C26.8808 73.388 27.0088 73.792 27.0088 74.32ZM25.4128 73.588C25.1808 73.588 24.9928 73.648 24.8488 73.768C24.7128 73.888 24.6448 74.076 24.6448 74.332C24.6448 74.556 24.7008 74.728 24.8128 74.848C24.9248 74.968 25.0448 75.028 25.1728 75.028C25.7888 75.028 26.0968 74.752 26.0968 74.2C26.0968 74.016 26.0368 73.868 25.9168 73.756C25.7968 73.644 25.6288 73.588 25.4128 73.588Z" fill="black"/>
<path d="M8.768 116.64C8.496 116.744 8.264 116.88 8.072 117.048C7.88 117.208 7.708 117.404 7.556 117.636L7.364 117.936C7.22 118.152 7.112 118.328 7.04 118.464C6.968 118.6 6.92 118.744 6.896 118.896C7.288 118.496 7.848 118.296 8.576 118.296C8.888 118.296 9.216 118.384 9.56 118.56C9.912 118.736 10.196 118.94 10.412 119.172C10.548 119.324 10.66 119.556 10.748 119.868C10.844 120.18 10.892 120.512 10.892 120.864C10.892 121.144 10.808 121.432 10.64 121.728C10.472 122.016 10.264 122.268 10.016 122.484C9.776 122.7 9.552 122.836 9.344 122.892C9.024 122.972 8.748 123.012 8.516 123.012C7.988 123.012 7.5 122.868 7.052 122.58C6.604 122.292 6.248 121.908 5.984 121.428C5.72 120.94 5.588 120.412 5.588 119.844C5.588 119.06 5.776 118.312 6.152 117.6C6.536 116.88 7.04 116.296 7.664 115.848C7.768 115.776 7.952 115.7 8.216 115.62C8.488 115.532 8.728 115.488 8.936 115.488C9.328 115.488 9.524 115.644 9.524 115.956C9.524 116.14 9.456 116.284 9.32 116.388C9.192 116.492 9.008 116.576 8.768 116.64ZM8.288 121.908C8.472 121.908 8.628 121.9 8.756 121.884C8.884 121.86 9 121.816 9.104 121.752C9.264 121.64 9.404 121.508 9.524 121.356C9.652 121.196 9.716 121.044 9.716 120.9C9.716 120.348 9.58 119.96 9.308 119.736C9.044 119.512 8.732 119.396 8.372 119.388C8.188 119.388 7.976 119.44 7.736 119.544C7.504 119.64 7.304 119.768 7.136 119.928C6.976 120.088 6.896 120.244 6.896 120.396C6.896 120.74 6.968 121.028 7.112 121.26C7.264 121.484 7.448 121.648 7.664 121.752C7.88 121.856 8.088 121.908 8.288 121.908ZM17.2196 116.232C17.4836 116.64 17.6956 117.108 17.8556 117.636C18.0156 118.156 18.0956 118.688 18.0956 119.232C18.0956 119.88 17.9836 120.496 17.7596 121.08C17.5436 121.664 17.2156 122.14 16.7756 122.508C16.3436 122.876 15.8156 123.06 15.1916 123.06C14.6076 123.06 14.0716 122.912 13.5836 122.616C13.0956 122.312 12.7276 121.96 12.4796 121.56C12.2956 121.264 12.1556 120.932 12.0596 120.564C11.9636 120.188 11.9156 119.812 11.9156 119.436C11.9156 118.78 12.0516 118.14 12.3236 117.516C12.6036 116.892 12.9876 116.392 13.4756 116.016C13.9396 115.672 14.4716 115.5 15.0716 115.5C15.7356 115.5 16.4516 115.744 17.2196 116.232ZM14.0036 117.06C13.9316 117.18 13.8596 117.288 13.7876 117.384C13.6116 117.648 13.4836 117.872 13.4036 118.056C13.3236 118.232 13.2516 118.504 13.1876 118.872C13.1556 119.04 13.1396 119.236 13.1396 119.46C13.1396 120.028 13.2516 120.52 13.4756 120.936C13.7076 121.344 14.0236 121.62 14.4236 121.764C14.6156 121.836 14.8316 121.872 15.0716 121.872C15.6716 121.872 16.1236 121.608 16.4276 121.08C16.7396 120.544 16.8956 119.884 16.8956 119.1C16.8956 118.372 16.7596 117.776 16.4876 117.312C16.2156 116.84 15.7956 116.604 15.2276 116.604C14.9956 116.604 14.7956 116.64 14.6276 116.712C14.4676 116.784 14.2596 116.9 14.0036 117.06ZM25.7061 115.296C25.8181 115.296 25.9021 115.34 25.9581 115.428C26.0141 115.516 26.0421 115.616 26.0421 115.728C26.0421 115.88 25.9781 116.032 25.8501 116.184L25.3821 116.784C24.4701 117.976 23.7381 118.964 23.1861 119.748C22.6341 120.532 22.1021 121.392 21.5901 122.328C21.3421 122.808 21.0581 123.048 20.7381 123.048C20.5941 123.048 20.4661 123.012 20.3541 122.94C20.2421 122.86 20.1861 122.728 20.1861 122.544C20.1861 122.424 20.2221 122.324 20.2941 122.244C20.5581 121.868 21.0301 121.168 21.7101 120.144C22.3501 119.192 22.8781 118.416 23.2941 117.816C23.7181 117.208 24.1301 116.656 24.5301 116.16C24.5621 116.12 24.6381 116.02 24.7581 115.86C24.8861 115.7 25.0301 115.568 25.1901 115.464C25.3501 115.352 25.5221 115.296 25.7061 115.296ZM20.9541 115.428C21.1941 115.428 21.4381 115.484 21.6861 115.596C21.9421 115.708 22.1541 115.868 22.3221 116.076C22.4901 116.276 22.5741 116.5 22.5741 116.748C22.5741 117.1 22.4981 117.42 22.3461 117.708C22.1941 117.996 21.9861 118.224 21.7221 118.392C21.4581 118.552 21.1661 118.632 20.8461 118.632C20.3421 118.632 19.9381 118.484 19.6341 118.188C19.3301 117.884 19.1781 117.488 19.1781 117C19.1781 116.488 19.3341 116.1 19.6461 115.836C19.9661 115.564 20.4021 115.428 20.9541 115.428ZM20.6901 117.72C21.2661 117.72 21.5541 117.412 21.5541 116.796C21.5541 116.644 21.4981 116.532 21.3861 116.46C21.2821 116.388 21.1141 116.352 20.8821 116.352C20.6261 116.352 20.4301 116.42 20.2941 116.556C20.1661 116.684 20.1021 116.832 20.1021 117C20.1021 117.184 20.1581 117.352 20.2701 117.504C20.3821 117.648 20.5221 117.72 20.6901 117.72ZM26.7861 121.32C26.7861 121.632 26.6981 121.912 26.5221 122.16C26.3541 122.4 26.1261 122.588 25.8381 122.724C25.5581 122.86 25.2621 122.928 24.9501 122.928C24.6861 122.928 24.4381 122.864 24.2061 122.736C23.9741 122.6 23.7861 122.416 23.6421 122.184C23.5061 121.952 23.4381 121.692 23.4381 121.404C23.4381 121.108 23.5101 120.828 23.6541 120.564C23.8061 120.3 24.0221 120.088 24.3021 119.928C24.5821 119.76 24.9101 119.676 25.2861 119.676C25.7741 119.676 26.1461 119.82 26.4021 120.108C26.6581 120.388 26.7861 120.792 26.7861 121.32ZM25.1901 120.588C24.9581 120.588 24.7701 120.648 24.6261 120.768C24.4901 120.888 24.4221 121.076 24.4221 121.332C24.4221 121.556 24.4781 121.728 24.5901 121.848C24.7021 121.968 24.8221 122.028 24.9501 122.028C25.5661 122.028 25.8741 121.752 25.8741 121.2C25.8741 121.016 25.8141 120.868 25.6941 120.756C25.5741 120.644 25.4061 120.588 25.1901 120.588Z" fill="black"/>
<path d="M7.832 162.8C7.832 163.192 7.76 163.648 7.616 164.168C7.48 164.68 7.28 165.312 7.016 166.064L6.74 166.892C6.876 166.916 7.016 166.928 7.16 166.928C7.408 166.928 7.78 166.904 8.276 166.856C8.772 166.808 9.128 166.784 9.344 166.784L9.332 165.464C9.316 164.552 9.308 163.88 9.308 163.448C9.308 162.88 9.496 162.596 9.872 162.596C10.168 162.596 10.356 162.672 10.436 162.824C10.524 162.976 10.568 163.204 10.568 163.508C10.568 163.82 10.544 164.304 10.496 164.96C10.488 165.088 10.476 165.3 10.46 165.596C10.444 165.892 10.436 166.148 10.436 166.364L10.448 166.748L10.688 166.736C10.88 166.72 11.028 166.712 11.132 166.712C11.324 166.712 11.508 166.776 11.684 166.904C11.86 167.024 11.948 167.168 11.948 167.336C11.948 167.536 11.916 167.692 11.852 167.804C11.796 167.916 11.728 167.972 11.648 167.972C11.512 167.972 11.34 167.956 11.132 167.924C11.084 167.924 11.012 167.92 10.916 167.912C10.82 167.896 10.728 167.888 10.64 167.888L10.436 167.9L10.448 169.52C10.448 169.688 10.392 169.816 10.28 169.904C10.168 169.992 10.04 170.036 9.896 170.036C9.72 170.036 9.564 169.98 9.428 169.868C9.292 169.756 9.224 169.616 9.224 169.448C9.224 168.912 9.232 168.492 9.248 168.188C9.256 168.116 9.26 168.028 9.26 167.924C9.02 167.916 8.604 167.944 8.012 168.008C7.452 168.072 7.028 168.104 6.74 168.104C6.372 168.104 6.06 168.052 5.804 167.948C5.556 167.844 5.432 167.68 5.432 167.456C5.432 167.24 5.476 166.976 5.564 166.664C5.652 166.352 5.784 165.932 5.96 165.404C6.04 165.196 6.1 165.024 6.14 164.888C6.284 164.48 6.392 164.136 6.464 163.856C6.536 163.568 6.616 163.22 6.704 162.812C6.736 162.684 6.804 162.588 6.908 162.524C7.012 162.46 7.132 162.428 7.268 162.428C7.412 162.428 7.54 162.464 7.652 162.536C7.772 162.6 7.832 162.688 7.832 162.8ZM18.075 163.232C18.339 163.64 18.551 164.108 18.711 164.636C18.871 165.156 18.951 165.688 18.951 166.232C18.951 166.88 18.839 167.496 18.615 168.08C18.399 168.664 18.071 169.14 17.631 169.508C17.199 169.876 16.671 170.06 16.047 170.06C15.463 170.06 14.927 169.912 14.439 169.616C13.951 169.312 13.583 168.96 13.335 168.56C13.151 168.264 13.011 167.932 12.915 167.564C12.819 167.188 12.771 166.812 12.771 166.436C12.771 165.78 12.907 165.14 13.179 164.516C13.459 163.892 13.843 163.392 14.331 163.016C14.795 162.672 15.327 162.5 15.927 162.5C16.591 162.5 17.307 162.744 18.075 163.232ZM14.859 164.06C14.787 164.18 14.715 164.288 14.643 164.384C14.467 164.648 14.339 164.872 14.259 165.056C14.179 165.232 14.107 165.504 14.043 165.872C14.011 166.04 13.995 166.236 13.995 166.46C13.995 167.028 14.107 167.52 14.331 167.936C14.563 168.344 14.879 168.62 15.279 168.764C15.471 168.836 15.687 168.872 15.927 168.872C16.527 168.872 16.979 168.608 17.283 168.08C17.595 167.544 17.751 166.884 17.751 166.1C17.751 165.372 17.615 164.776 17.343 164.312C17.071 163.84 16.651 163.604 16.083 163.604C15.851 163.604 15.651 163.64 15.483 163.712C15.323 163.784 15.115 163.9 14.859 164.06ZM26.5616 162.296C26.6736 162.296 26.7576 162.34 26.8136 162.428C26.8696 162.516 26.8976 162.616 26.8976 162.728C26.8976 162.88 26.8336 163.032 26.7056 163.184L26.2376 163.784C25.3256 164.976 24.5936 165.964 24.0416 166.748C23.4896 167.532 22.9576 168.392 22.4456 169.328C22.1976 169.808 21.9136 170.048 21.5936 170.048C21.4496 170.048 21.3216 170.012 21.2096 169.94C21.0976 169.86 21.0416 169.728 21.0416 169.544C21.0416 169.424 21.0776 169.324 21.1496 169.244C21.4136 168.868 21.8856 168.168 22.5656 167.144C23.2056 166.192 23.7336 165.416 24.1496 164.816C24.5736 164.208 24.9856 163.656 25.3856 163.16C25.4176 163.12 25.4936 163.02 25.6136 162.86C25.7416 162.7 25.8856 162.568 26.0456 162.464C26.2056 162.352 26.3776 162.296 26.5616 162.296ZM21.8096 162.428C22.0496 162.428 22.2936 162.484 22.5416 162.596C22.7976 162.708 23.0096 162.868 23.1776 163.076C23.3456 163.276 23.4296 163.5 23.4296 163.748C23.4296 164.1 23.3536 164.42 23.2016 164.708C23.0496 164.996 22.8416 165.224 22.5776 165.392C22.3136 165.552 22.0216 165.632 21.7016 165.632C21.1976 165.632 20.7936 165.484 20.4896 165.188C20.1856 164.884 20.0336 164.488 20.0336 164C20.0336 163.488 20.1896 163.1 20.5016 162.836C20.8216 162.564 21.2576 162.428 21.8096 162.428ZM21.5456 164.72C22.1216 164.72 22.4096 164.412 22.4096 163.796C22.4096 163.644 22.3536 163.532 22.2416 163.46C22.1376 163.388 21.9696 163.352 21.7376 163.352C21.4816 163.352 21.2856 163.42 21.1496 163.556C21.0216 163.684 20.9576 163.832 20.9576 164C20.9576 164.184 21.0136 164.352 21.1256 164.504C21.2376 164.648 21.3776 164.72 21.5456 164.72ZM27.6416 168.32C27.6416 168.632 27.5536 168.912 27.3776 169.16C27.2096 169.4 26.9816 169.588 26.6936 169.724C26.4136 169.86 26.1176 169.928 25.8056 169.928C25.5416 169.928 25.2936 169.864 25.0616 169.736C24.8296 169.6 24.6416 169.416 24.4976 169.184C24.3616 168.952 24.2936 168.692 24.2936 168.404C24.2936 168.108 24.3656 167.828 24.5096 167.564C24.6616 167.3 24.8776 167.088 25.1576 166.928C25.4376 166.76 25.7656 166.676 26.1416 166.676C26.6296 166.676 27.0016 166.82 27.2576 167.108C27.5136 167.388 27.6416 167.792 27.6416 168.32ZM26.0456 167.588C25.8136 167.588 25.6256 167.648 25.4816 167.768C25.3456 167.888 25.2776 168.076 25.2776 168.332C25.2776 168.556 25.3336 168.728 25.4456 168.848C25.5576 168.968 25.6776 169.028 25.8056 169.028C26.4216 169.028 26.7296 168.752 26.7296 168.2C26.7296 168.016 26.6696 167.868 26.5496 167.756C26.4296 167.644 26.2616 167.588 26.0456 167.588Z" fill="black"/>
<path d="M7.292 215.752C7.564 215.768 7.744 215.776 7.832 215.776C8.104 215.776 8.344 215.772 8.552 215.764C8.768 215.756 8.952 215.748 9.104 215.74C9.496 215.716 9.848 215.704 10.16 215.704C10.464 215.704 10.688 215.784 10.832 215.944C10.976 216.104 11.048 216.316 11.048 216.58C11.048 216.708 10.964 216.812 10.796 216.892C10.628 216.964 10.456 217 10.28 217C10.128 217 9.812 216.984 9.332 216.952C8.756 216.904 8.304 216.88 7.976 216.88C7.8 216.88 7.592 216.892 7.352 216.916C7.256 216.924 7.14 216.932 7.004 216.94C6.868 216.948 6.716 216.952 6.548 216.952C6.228 216.952 5.984 216.908 5.816 216.82C5.648 216.732 5.564 216.572 5.564 216.34C5.564 216.14 5.644 215.936 5.804 215.728C5.964 215.52 6.188 215.272 6.476 214.984L6.764 214.696C6.892 214.56 7.128 214.328 7.472 214C8.04 213.488 8.48 213.036 8.792 212.644C9.112 212.252 9.272 211.864 9.272 211.48C9.272 211.232 9.152 211.032 8.912 210.88C8.68 210.72 8.412 210.64 8.108 210.64C7.644 210.64 7.308 210.744 7.1 210.952C6.9 211.152 6.8 211.444 6.8 211.828C6.8 211.924 6.744 212.012 6.632 212.092C6.528 212.164 6.396 212.2 6.236 212.2C6.012 212.2 5.856 212.12 5.768 211.96C5.68 211.8 5.636 211.604 5.636 211.372C5.636 211.004 5.748 210.68 5.972 210.4C6.196 210.112 6.5 209.888 6.884 209.728C7.276 209.568 7.708 209.488 8.18 209.488C8.516 209.488 8.864 209.572 9.224 209.74C9.592 209.9 9.896 210.12 10.136 210.4C10.384 210.672 10.508 210.972 10.508 211.3C10.508 211.796 10.384 212.268 10.136 212.716C9.888 213.164 9.596 213.564 9.26 213.916C8.932 214.26 8.504 214.668 7.976 215.14C7.72 215.356 7.492 215.56 7.292 215.752ZM17.1844 210.232C17.4484 210.64 17.6604 211.108 17.8204 211.636C17.9804 212.156 18.0604 212.688 18.0604 213.232C18.0604 213.88 17.9484 214.496 17.7244 215.08C17.5084 215.664 17.1804 216.14 16.7404 216.508C16.3084 216.876 15.7804 217.06 15.1564 217.06C14.5724 217.06 14.0364 216.912 13.5484 216.616C13.0604 216.312 12.6924 215.96 12.4444 215.56C12.2604 215.264 12.1204 214.932 12.0244 214.564C11.9284 214.188 11.8804 213.812 11.8804 213.436C11.8804 212.78 12.0164 212.14 12.2884 211.516C12.5684 210.892 12.9524 210.392 13.4404 210.016C13.9044 209.672 14.4364 209.5 15.0364 209.5C15.7004 209.5 16.4164 209.744 17.1844 210.232ZM13.9684 211.06C13.8964 211.18 13.8244 211.288 13.7524 211.384C13.5764 211.648 13.4484 211.872 13.3684 212.056C13.2884 212.232 13.2164 212.504 13.1524 212.872C13.1204 213.04 13.1044 213.236 13.1044 213.46C13.1044 214.028 13.2164 214.52 13.4404 214.936C13.6724 215.344 13.9884 215.62 14.3884 215.764C14.5804 215.836 14.7964 215.872 15.0364 215.872C15.6364 215.872 16.0884 215.608 16.3924 215.08C16.7044 214.544 16.8604 213.884 16.8604 213.1C16.8604 212.372 16.7244 211.776 16.4524 211.312C16.1804 210.84 15.7604 210.604 15.1924 210.604C14.9604 210.604 14.7604 210.64 14.5924 210.712C14.4324 210.784 14.2244 210.9 13.9684 211.06ZM25.6709 209.296C25.7829 209.296 25.8669 209.34 25.9229 209.428C25.9789 209.516 26.0069 209.616 26.0069 209.728C26.0069 209.88 25.9429 210.032 25.8149 210.184L25.3469 210.784C24.4349 211.976 23.7029 212.964 23.1509 213.748C22.5989 214.532 22.0669 215.392 21.5549 216.328C21.3069 216.808 21.0229 217.048 20.7029 217.048C20.5589 217.048 20.4309 217.012 20.3189 216.94C20.2069 216.86 20.1509 216.728 20.1509 216.544C20.1509 216.424 20.1869 216.324 20.2589 216.244C20.5229 215.868 20.9949 215.168 21.6749 214.144C22.3149 213.192 22.8429 212.416 23.2589 211.816C23.6829 211.208 24.0949 210.656 24.4949 210.16C24.5269 210.12 24.6029 210.02 24.7229 209.86C24.8509 209.7 24.9949 209.568 25.1549 209.464C25.3149 209.352 25.4869 209.296 25.6709 209.296ZM20.9189 209.428C21.1589 209.428 21.4029 209.484 21.6509 209.596C21.9069 209.708 22.1189 209.868 22.2869 210.076C22.4549 210.276 22.5389 210.5 22.5389 210.748C22.5389 211.1 22.4629 211.42 22.3109 211.708C22.1589 211.996 21.9509 212.224 21.6869 212.392C21.4229 212.552 21.1309 212.632 20.8109 212.632C20.3069 212.632 19.9029 212.484 19.5989 212.188C19.2949 211.884 19.1429 211.488 19.1429 211C19.1429 210.488 19.2989 210.1 19.6109 209.836C19.9309 209.564 20.3669 209.428 20.9189 209.428ZM20.6549 211.72C21.2309 211.72 21.5189 211.412 21.5189 210.796C21.5189 210.644 21.4629 210.532 21.3509 210.46C21.2469 210.388 21.0789 210.352 20.8469 210.352C20.5909 210.352 20.3949 210.42 20.2589 210.556C20.1309 210.684 20.0669 210.832 20.0669 211C20.0669 211.184 20.1229 211.352 20.2349 211.504C20.3469 211.648 20.4869 211.72 20.6549 211.72ZM26.7509 215.32C26.7509 215.632 26.6629 215.912 26.4869 216.16C26.3189 216.4 26.0909 216.588 25.8029 216.724C25.5229 216.86 25.2269 216.928 24.9149 216.928C24.6509 216.928 24.4029 216.864 24.1709 216.736C23.9389 216.6 23.7509 216.416 23.6069 216.184C23.4709 215.952 23.4029 215.692 23.4029 215.404C23.4029 215.108 23.4749 214.828 23.6189 214.564C23.7709 214.3 23.9869 214.088 24.2669 213.928C24.5469 213.76 24.8749 213.676 25.2509 213.676C25.7389 213.676 26.1109 213.82 26.3669 214.108C26.6229 214.388 26.7509 214.792 26.7509 215.32ZM25.1549 214.588C24.9229 214.588 24.7349 214.648 24.5909 214.768C24.4549 214.888 24.3869 215.076 24.3869 215.332C24.3869 215.556 24.4429 215.728 24.5549 215.848C24.6669 215.968 24.7869 216.028 24.9149 216.028C25.5309 216.028 25.8389 215.752 25.8389 215.2C25.8389 215.016 25.7789 214.868 25.6589 214.756C25.5389 214.644 25.3709 214.588 25.1549 214.588Z" fill="black"/>
<path d="M232.154 287.838C232.154 287.437 232.448 287.236 233.036 287.236C233.288 287.236 233.769 287.245 234.478 287.264C235.262 287.301 235.855 287.32 236.256 287.32C236.583 287.32 236.979 287.301 237.446 287.264C237.763 287.245 237.964 287.236 238.048 287.236C238.561 287.255 238.995 287.348 239.35 287.516C239.453 287.563 239.537 287.619 239.602 287.684C239.667 287.749 239.7 287.857 239.7 288.006C239.7 288.211 239.635 288.389 239.504 288.538C239.373 288.678 239.215 288.748 239.028 288.748C238.823 288.748 238.524 288.72 238.132 288.664C237.787 288.599 237.483 288.566 237.222 288.566C236.97 288.566 236.779 288.571 236.648 288.58C236.62 288.888 236.606 289.625 236.606 290.792C236.606 292.183 236.648 293.592 236.732 295.02L236.76 295.426C236.76 295.809 236.541 296 236.102 296C235.757 296 235.523 295.921 235.402 295.762C235.281 295.594 235.22 295.342 235.22 295.006C235.22 294.343 235.201 293.517 235.164 292.528C235.127 291.707 235.108 291.123 235.108 290.778C235.108 290.545 235.136 289.831 235.192 288.636L233.554 288.65C233.031 288.65 232.667 288.603 232.462 288.51C232.257 288.407 232.154 288.183 232.154 287.838ZM241.304 287.012C241.63 287.04 241.915 287.129 242.158 287.278C242.4 287.418 242.522 287.633 242.522 287.922C242.522 288.137 242.419 288.309 242.214 288.44C242.018 288.561 241.78 288.622 241.5 288.622C241.229 288.622 241.042 288.552 240.94 288.412C240.837 288.272 240.786 288.127 240.786 287.978C240.786 287.698 240.814 287.465 240.87 287.278C240.935 287.091 241.08 287.003 241.304 287.012ZM242.424 293.214V293.62C242.424 293.984 242.433 294.329 242.452 294.656C242.48 294.973 242.512 295.295 242.55 295.622C242.54 295.715 242.47 295.813 242.34 295.916C242.209 296.009 242.092 296.056 241.99 296.056C241.812 296.056 241.63 296.023 241.444 295.958C241.266 295.883 241.159 295.795 241.122 295.692C241.066 295.393 241.038 295.127 241.038 294.894C241.038 294.129 241.014 293.27 240.968 292.318C240.93 291.478 240.912 290.89 240.912 290.554C240.912 290.386 240.996 290.241 241.164 290.12C241.332 289.999 241.509 289.938 241.696 289.938C241.966 289.938 242.153 289.999 242.256 290.12C242.368 290.241 242.424 290.433 242.424 290.694V293.214ZM253.006 295.51C252.866 295.249 252.777 294.959 252.74 294.642C252.702 294.315 252.684 293.867 252.684 293.298C252.684 292.757 252.609 292.285 252.46 291.884C252.31 291.483 252.002 291.282 251.536 291.282C251.358 291.282 251.181 291.338 251.004 291.45C250.836 291.553 250.71 291.683 250.626 291.842C250.495 292.094 250.406 292.369 250.36 292.668C250.313 292.957 250.29 293.293 250.29 293.676C250.29 293.919 250.304 294.166 250.332 294.418C250.332 294.493 250.336 294.614 250.346 294.782C250.364 294.941 250.374 295.085 250.374 295.216C250.374 295.776 250.178 296.056 249.786 296.056C249.272 296.056 249.002 295.785 248.974 295.244C248.974 294.861 248.978 294.656 248.988 294.628V294.026C248.988 293.69 248.974 293.363 248.946 293.046C248.918 292.729 248.885 292.491 248.848 292.332C248.764 292.024 248.652 291.786 248.512 291.618C248.381 291.45 248.171 291.366 247.882 291.366C247.471 291.366 247.14 291.543 246.888 291.898C246.71 292.178 246.594 292.519 246.538 292.92C246.482 293.433 246.44 293.839 246.412 294.138C246.393 294.427 246.384 294.763 246.384 295.146C246.384 295.417 246.337 295.636 246.244 295.804C246.16 295.972 245.996 296.056 245.754 296.056C245.576 296.056 245.39 296.009 245.194 295.916C245.007 295.813 244.914 295.678 244.914 295.51C244.914 295.333 244.932 295.155 244.97 294.978C245.054 294.446 245.096 293.494 245.096 292.122C245.096 291.898 245.04 291.683 244.928 291.478C244.825 291.263 244.699 291.156 244.55 291.156C244.512 291.156 244.442 291.175 244.34 291.212C244.246 291.249 244.176 291.268 244.13 291.268C244.008 291.268 243.896 291.212 243.794 291.1C243.7 290.988 243.654 290.895 243.654 290.82C243.654 290.587 243.766 290.391 243.99 290.232C244.223 290.064 244.466 289.98 244.718 289.98C245.063 289.98 245.357 290.087 245.6 290.302C245.842 290.517 246.029 290.815 246.16 291.198C246.374 290.825 246.664 290.526 247.028 290.302C247.392 290.069 247.798 289.952 248.246 289.952C248.526 289.952 248.75 289.989 248.918 290.064C249.095 290.129 249.24 290.227 249.352 290.358C249.464 290.479 249.608 290.666 249.786 290.918C250.019 290.619 250.318 290.386 250.682 290.218C251.055 290.05 251.438 289.966 251.83 289.966C252.296 289.966 252.716 290.157 253.09 290.54C253.463 290.913 253.715 291.347 253.846 291.842C253.911 292.094 253.944 292.579 253.944 293.298L254 294.11C254.046 294.595 254.205 294.889 254.476 294.992C254.793 295.085 254.952 295.183 254.952 295.286C254.952 295.51 254.896 295.673 254.784 295.776C254.7 295.832 254.583 295.893 254.434 295.958C254.284 296.023 254.168 296.056 254.084 296.056C253.58 296.056 253.22 295.874 253.006 295.51ZM255.803 292.794C255.803 292.225 255.929 291.753 256.181 291.38C256.433 290.997 256.783 290.638 257.231 290.302C257.362 290.209 257.581 290.129 257.889 290.064C258.197 289.989 258.468 289.952 258.701 289.952C258.981 289.952 259.275 290.013 259.583 290.134C259.901 290.246 260.157 290.377 260.353 290.526C260.699 290.778 260.937 291.072 261.067 291.408C261.198 291.735 261.263 292.127 261.263 292.584C261.263 292.78 261.151 292.971 260.927 293.158C260.713 293.335 260.479 293.424 260.227 293.424L259.695 293.41C259.425 293.41 259.037 293.419 258.533 293.438L258.239 293.452C258.034 293.471 257.88 293.48 257.777 293.48C257.628 293.48 257.423 293.461 257.161 293.424C257.199 293.863 257.362 294.208 257.651 294.46C257.941 294.703 258.253 294.824 258.589 294.824C259.177 294.824 259.588 294.707 259.821 294.474C260.017 294.334 260.148 294.245 260.213 294.208C260.279 294.171 260.381 294.152 260.521 294.152C260.671 294.152 260.801 294.222 260.913 294.362C261.025 294.502 261.081 294.642 261.081 294.782C261.081 294.941 260.983 295.104 260.787 295.272C260.601 295.431 260.344 295.599 260.017 295.776C259.84 295.851 259.597 295.916 259.289 295.972C258.981 296.028 258.725 296.056 258.519 296.056C258.193 296.056 257.829 295.963 257.427 295.776C257.026 295.58 256.727 295.365 256.531 295.132C256.335 294.899 256.163 294.567 256.013 294.138C255.873 293.709 255.803 293.261 255.803 292.794ZM258.589 292.416C259.252 292.416 259.737 292.393 260.045 292.346C260.027 292.075 259.943 291.856 259.793 291.688C259.644 291.511 259.439 291.361 259.177 291.24C259.093 291.203 259.019 291.175 258.953 291.156C258.888 291.137 258.813 291.128 258.729 291.128C258.3 291.128 257.936 291.245 257.637 291.478C257.348 291.711 257.175 292.01 257.119 292.374C257.586 292.402 258.076 292.416 258.589 292.416Z" fill="black"/>
<path d="M67.5 25C71.0008 97.3333 147.902 242 427.5 242" stroke="#D2E3FF" stroke-width="2" stroke-linecap="round"/>
<path d="M67 25.5C70.1667 50.5 83.8 106.4 113 130V25.5C115.667 56.3333 136.8 118 200 118V25.5C203.167 49.8333 234.2 98.5 333 98.5V25.5C343.667 44.8333 376.5 83.5 422.5 83.5" stroke="#88B2FA" stroke-width="2"/>
<path d="M423 278L413 272.226V283.774L423 278ZM77 279H414V277H77V279Z" fill="#03A0E3"/>
<path d="M326.15 17.85C325.467 17.05 324.938 16.1542 324.563 15.1625C324.188 14.1708 324 13.1167 324 12C324 9.5 324.875 7.375 326.625 5.625C328.375 3.875 330.5 3 333 3H333.2L331.6 1.4L333 0L337 4L333 8L331.575 6.575L333.15 5H333C331.067 5 329.417 5.68333 328.05 7.05C326.683 8.41667 326 10.0667 326 12C326 12.85 326.138 13.65 326.413 14.4C326.688 15.15 327.075 15.825 327.575 16.425L326.15 17.85ZM332 17.5C332 17.1167 331.871 16.7375 331.613 16.3625C331.354 15.9875 331.067 15.5958 330.75 15.1875C330.433 14.7792 330.146 14.3542 329.888 13.9125C329.629 13.4708 329.5 13 329.5 12.5C329.5 11.5333 329.842 10.7083 330.525 10.025C331.208 9.34167 332.033 9 333 9C333.967 9 334.792 9.34167 335.475 10.025C336.158 10.7083 336.5 11.5333 336.5 12.5C336.5 13 336.371 13.4708 336.113 13.9125C335.854 14.3542 335.567 14.7792 335.25 15.1875C334.933 15.5958 334.646 15.9875 334.388 16.3625C334.129 16.7375 334 17.1167 334 17.5H332ZM332 20V18.5H334V20H332ZM339.85 17.85L338.425 16.425C338.925 15.825 339.313 15.15 339.588 14.4C339.863 13.65 340 12.85 340 12C340 10.9 339.771 9.87917 339.313 8.9375C338.854 7.99583 338.225 7.20833 337.425 6.575L338.85 5.15C339.817 5.98333 340.583 6.9875 341.15 8.1625C341.717 9.3375 342 10.6167 342 12C342 13.1167 341.813 14.1708 341.438 15.1625C341.063 16.1542 340.533 17.05 339.85 17.85Z" fill="#0078DA"/>
<path d="M194.15 17.85C193.467 17.05 192.938 16.1542 192.563 15.1625C192.188 14.1708 192 13.1167 192 12C192 9.5 192.875 7.375 194.625 5.625C196.375 3.875 198.5 3 201 3H201.2L199.6 1.4L201 0L205 4L201 8L199.575 6.575L201.15 5H201C199.067 5 197.417 5.68333 196.05 7.05C194.683 8.41667 194 10.0667 194 12C194 12.85 194.138 13.65 194.413 14.4C194.688 15.15 195.075 15.825 195.575 16.425L194.15 17.85ZM200 17.5C200 17.1167 199.871 16.7375 199.613 16.3625C199.354 15.9875 199.067 15.5958 198.75 15.1875C198.433 14.7792 198.146 14.3542 197.888 13.9125C197.629 13.4708 197.5 13 197.5 12.5C197.5 11.5333 197.842 10.7083 198.525 10.025C199.208 9.34167 200.033 9 201 9C201.967 9 202.792 9.34167 203.475 10.025C204.158 10.7083 204.5 11.5333 204.5 12.5C204.5 13 204.371 13.4708 204.113 13.9125C203.854 14.3542 203.567 14.7792 203.25 15.1875C202.933 15.5958 202.646 15.9875 202.388 16.3625C202.129 16.7375 202 17.1167 202 17.5H200ZM200 20V18.5H202V20H200ZM207.85 17.85L206.425 16.425C206.925 15.825 207.313 15.15 207.588 14.4C207.863 13.65 208 12.85 208 12C208 10.9 207.771 9.87917 207.313 8.9375C206.854 7.99583 206.225 7.20833 205.425 6.575L206.85 5.15C207.817 5.98333 208.583 6.9875 209.15 8.1625C209.717 9.3375 210 10.6167 210 12C210 13.1167 209.813 14.1708 209.438 15.1625C209.063 16.1542 208.533 17.05 207.85 17.85Z" fill="#0078DA"/>
<path d="M106.15 17.85C105.467 17.05 104.938 16.1542 104.563 15.1625C104.188 14.1708 104 13.1167 104 12C104 9.5 104.875 7.375 106.625 5.625C108.375 3.875 110.5 3 113 3H113.2L111.6 1.4L113 0L117 4L113 8L111.575 6.575L113.15 5H113C111.067 5 109.417 5.68333 108.05 7.05C106.683 8.41667 106 10.0667 106 12C106 12.85 106.138 13.65 106.413 14.4C106.688 15.15 107.075 15.825 107.575 16.425L106.15 17.85ZM112 17.5C112 17.1167 111.871 16.7375 111.613 16.3625C111.354 15.9875 111.067 15.5958 110.75 15.1875C110.433 14.7792 110.146 14.3542 109.888 13.9125C109.629 13.4708 109.5 13 109.5 12.5C109.5 11.5333 109.842 10.7083 110.525 10.025C111.208 9.34167 112.033 9 113 9C113.967 9 114.792 9.34167 115.475 10.025C116.158 10.7083 116.5 11.5333 116.5 12.5C116.5 13 116.371 13.4708 116.113 13.9125C115.854 14.3542 115.567 14.7792 115.25 15.1875C114.933 15.5958 114.646 15.9875 114.388 16.3625C114.129 16.7375 114 17.1167 114 17.5H112ZM112 20V18.5H114V20H112ZM119.85 17.85L118.425 16.425C118.925 15.825 119.313 15.15 119.588 14.4C119.863 13.65 120 12.85 120 12C120 10.9 119.771 9.87917 119.313 8.9375C118.854 7.99583 118.225 7.20833 117.425 6.575L118.85 5.15C119.817 5.98333 120.583 6.9875 121.15 8.1625C121.717 9.3375 122 10.6167 122 12C122 13.1167 121.813 14.1708 121.438 15.1625C121.063 16.1542 120.533 17.05 119.85 17.85Z" fill="#0078DA"/>
</svg>
