<svg width="747" height="760" viewBox="0 0 747 760" fill="none" xmlns="http://www.w3.org/2000/svg">
<path d="M351.835 201.565L359.437 113.894C361.424 90.9804 329.716 81.606 307.113 115.38C284.511 149.154 258.025 154.786 247.654 164.426C237.282 174.066 215.906 171.71 269.349 232.555C312.104 281.231 342.154 232.177 351.835 201.565Z" fill="#F9FEF3"/>
<path d="M614.752 88.8824C622.863 134.253 535.758 110.639 510.173 108.421C484.588 106.202 443.223 151.246 444.774 133.364C446.324 115.482 475.389 38.6549 500.974 40.8735C522.282 26.6611 573.799 92.3574 614.752 88.8824Z" fill="#F9FEF3"/>
<path d="M716.595 401.851C721.739 446.845 586.852 511.05 532.38 506.327C477.909 501.603 435.779 480.171 439.691 435.053C443.604 389.935 457.648 364.842 512.12 369.565C579.035 500.768 704.832 298.95 716.595 401.851Z" fill="#F9FEF3"/>
<path d="M656.574 390.351C661.09 407.152 591.523 443.866 575.255 448.239C558.988 452.611 515.976 460.767 511.46 443.967C506.945 427.166 497.199 423.222 515.385 398.701C523.749 400.922 587.569 420.017 656.574 390.351Z" fill="#F9FEF3"/>
<path d="M462.42 566.507C149.67 405.386 280.27 676.164 187.635 586.845C95.0005 497.526 278.367 469.54 370.178 374.32C469.675 112.437 504.571 253.998 597.206 343.317C496.341 406.841 554.231 471.288 462.42 566.507Z" fill="#F9FEF3"/>
<path d="M146.968 517.572C221.96 578.78 280.427 603.228 238.097 631.828C195.766 660.427 130.727 633.197 84.1944 564.324C35.2892 462.719 96.1993 400.749 168.983 379.457C113.571 422.331 129.246 490.44 146.968 517.572Z" fill="#F9FEF3"/>
<path d="M337.748 609.398C317.946 669.913 234.662 709.366 195.872 706.002C157.081 702.638 128.054 666.23 131.919 621.662C135.784 577.094 175.301 538.097 215.56 531.049C263.942 528.72 328.607 512.245 337.748 609.398Z" fill="#F9FEF3"/>
<path d="M210.812 698.208C210.104 693.764 229.326 661.678 330.28 651.361C374.34 644.642 387.707 671.028 388.414 675.473C391.006 691.758 400.059 686.515 352.534 694.079C150.87 715.65 211.519 702.653 210.812 698.208Z" fill="#F9FEF3"/>
<path d="M553.187 678.769C562.223 696.114 530.15 688.315 485.467 689.96C467.585 688.41 468.405 688.481 459.704 674.527C453.568 664.686 469.181 639.013 504.846 656.008C533.051 649.068 554.189 667.214 553.187 678.769Z" fill="#F9FEF3"/>
<path d="M508.426 591.576C500.262 685.723 620.962 700.204 474.857 683.52C459.726 682.208 422.583 620.769 428.976 547.046C453.342 462.836 464.134 464.092 477.146 471.926C617.376 556.357 522.566 428.509 508.426 591.576Z" fill="#F9FEF3"/>
<path d="M425.886 576.89C420.329 612.965 388.072 644.852 342.679 640.916C341.34 656.358 416.662 527.408 260.91 528.959C263.511 498.972 324.891 450.191 370.284 454.128C415.677 458.064 447.705 435.246 425.886 576.89Z" fill="#F9FEF3"/>
<path d="M599.242 169.343C692.858 310.96 687.364 315.769 603.833 347.907C462.612 402.241 358.712 322.011 338.187 268.661C429.38 154.613 328.26 145.844 419.668 116.13C480.608 96.3209 548.938 101.242 599.242 169.343Z" fill="#F9FEF3"/>
<path d="M696.755 213.935C710.046 274.81 664.059 330.044 638.199 327.801C612.339 325.559 582.112 291.658 584.473 264.423C586.835 237.187 599.922 202.025 623.596 212.609C666.199 224.835 682.934 199.687 696.755 213.935Z" fill="#F9FEF3"/>
</svg>
