<svg width="374" height="380" viewBox="0 0 374 380" fill="none" xmlns="http://www.w3.org/2000/svg">
<path d="M175.917 100.783L179.719 56.9473C180.712 45.4903 164.858 40.8031 153.557 57.6899C142.256 74.5769 129.013 77.393 123.827 82.213C118.641 87.033 107.953 85.8553 134.675 116.278C156.052 140.615 171.077 116.088 175.917 100.783Z" fill="#0069E4"/>
<path d="M307.376 44.4411C311.431 67.1263 267.879 55.3196 255.087 54.2103C242.294 53.101 221.612 75.623 222.387 66.682C223.162 57.7409 237.694 19.3274 250.487 20.4367C261.141 13.3305 286.899 46.1786 307.376 44.4411Z" fill="#0069E4"/>
<path d="M358.298 200.925C360.869 223.422 293.426 255.525 266.19 253.163C238.954 250.802 217.889 240.085 219.846 217.526C221.802 194.967 228.824 182.421 256.06 184.783C289.518 250.384 352.416 149.475 358.298 200.925Z" fill="#0069E4"/>
<path d="M328.287 195.176C330.545 203.576 295.761 221.933 287.628 224.119C279.494 226.306 257.988 230.384 255.73 221.983C253.472 213.583 248.599 211.611 257.693 199.35C261.874 200.461 293.784 210.008 328.287 195.176Z" fill="#0069E4"/>
<path d="M231.21 283.254C74.835 202.693 140.135 338.082 93.8177 293.422C47.5003 248.763 139.184 234.77 185.089 187.16C234.837 56.2185 252.285 126.999 298.603 171.659C248.17 203.42 277.115 235.644 231.21 283.254Z" fill="#0069E4"/>
<path d="M73.4839 258.786C110.98 289.39 140.214 301.614 119.048 315.914C97.8831 330.213 65.3633 316.599 42.0972 282.162C17.6446 231.36 48.0997 200.375 84.4913 189.729C56.7856 211.166 64.6228 245.22 73.4839 258.786Z" fill="#0069E4"/>
<path d="M168.874 304.699C158.973 334.957 117.331 354.683 97.936 353.001C78.5407 351.319 64.0272 333.115 65.9596 310.831C67.892 288.547 87.6503 269.049 107.78 265.524C131.971 264.36 164.304 256.122 168.874 304.699Z" fill="#0069E4"/>
<path d="M105.406 349.104C105.052 346.882 114.663 330.839 165.14 325.68C187.17 322.321 193.853 335.514 194.207 337.736C195.503 345.879 200.03 343.257 176.267 347.04C75.4351 357.825 105.76 351.327 105.406 349.104Z" fill="#0069E4"/>
<path d="M276.594 339.384C281.111 348.057 265.075 344.157 242.734 344.98C233.793 344.205 234.202 344.24 229.852 337.264C226.784 332.343 234.591 319.506 252.423 328.004C266.526 324.534 277.095 333.607 276.594 339.384Z" fill="#0069E4"/>
<path d="M254.213 295.788C250.131 342.861 310.481 350.102 237.429 341.76C229.863 341.104 211.291 310.385 214.488 273.523C226.671 231.418 232.067 232.046 238.573 235.963C308.688 278.178 261.283 214.254 254.213 295.788Z" fill="#0069E4"/>
<path d="M212.943 288.445C210.165 306.482 194.036 322.426 171.339 320.458C170.67 328.179 208.331 263.704 130.455 264.479C131.755 249.486 162.445 225.096 185.142 227.064C207.839 229.032 223.852 217.623 212.943 288.445Z" fill="#0069E4"/>
<path d="M299.621 84.6715C346.429 155.48 343.682 157.885 301.917 173.954C231.306 201.121 179.356 161.005 169.093 134.331C214.69 77.3066 164.13 72.9223 209.834 58.0652C240.304 48.1605 274.469 50.6213 299.621 84.6715Z" fill="#0069E4"/>
<path d="M348.378 106.967C355.023 137.405 332.03 165.022 319.1 163.901C306.169 162.78 291.056 145.829 292.237 132.211C293.418 118.593 299.961 101.012 311.798 106.305C333.1 112.418 341.467 99.8438 348.378 106.967Z" fill="#0069E4"/>
</svg>
