<svg width="783" height="816" viewBox="0 0 783 816" fill="none" xmlns="http://www.w3.org/2000/svg">
<path fill-rule="evenodd" clip-rule="evenodd" d="M687.861 217.639L582.81 242.035C577.333 244.192 565.583 250.299 562.397 257.469C559.21 264.638 523.563 368.329 506.137 419.278L660.478 360.529L711.261 316.218L687.861 217.639ZM653.967 307.47C656.709 308.578 660.151 306.471 661.656 302.76C663.16 299.051 662.157 295.145 659.415 294.037C656.674 292.927 653.231 295.038 651.728 298.745C650.222 302.455 651.226 306.361 653.967 307.47ZM645.719 299.044C646.211 302.654 644.106 306.714 641.018 308.113C637.929 309.509 635.026 307.717 634.534 304.106C634.043 300.495 636.148 296.435 639.236 295.038C642.325 293.639 645.227 295.434 645.719 299.044ZM630.588 319.46L630.588 319.459C628.465 322.79 624.882 323.89 622.586 321.916C620.291 319.944 620.15 315.643 622.273 312.313L622.273 312.312C624.397 308.981 627.979 307.882 630.276 309.854C632.571 311.827 632.712 316.129 630.588 319.46ZM627.655 338.253C626.348 327.485 638.198 311.672 647.016 311.235C655.834 310.797 663.443 325.645 659.118 336.692C655.813 345.131 650.18 344.44 645.735 343.894C644.563 343.75 643.473 343.617 642.53 343.663C641.588 343.71 640.445 343.955 639.216 344.218C634.558 345.215 628.654 346.479 627.655 338.253ZM671.801 309.856L671.801 309.854C670.576 306.69 667.25 305.933 664.373 308.162C661.496 310.392 660.155 314.767 661.38 317.932L661.38 317.931C662.605 321.095 665.93 321.853 668.808 319.622C671.684 317.394 673.025 313.02 671.801 309.856Z" fill="#0069E4"/>
<path d="M582.81 242.035L582.697 241.548L582.661 241.556L582.626 241.57L582.81 242.035ZM687.861 217.639L688.348 217.523L688.233 217.039L687.748 217.152L687.861 217.639ZM562.397 257.469L562.854 257.672L562.854 257.672L562.397 257.469ZM506.137 419.278L505.664 419.116L505.319 420.124L506.315 419.745L506.137 419.278ZM660.478 360.529L660.656 360.996L660.739 360.964L660.807 360.905L660.478 360.529ZM711.261 316.218L711.59 316.595L711.817 316.396L711.748 316.102L711.261 316.218ZM661.656 302.76L662.119 302.948L662.119 302.948L661.656 302.76ZM653.967 307.47L653.78 307.934L653.78 307.934L653.967 307.47ZM659.415 294.037L659.228 294.5L659.228 294.5L659.415 294.037ZM651.728 298.745L652.191 298.933L652.191 298.933L651.728 298.745ZM641.018 308.113L641.224 308.568L641.224 308.568L641.018 308.113ZM645.719 299.044L645.223 299.111L645.223 299.111L645.719 299.044ZM634.534 304.106L634.039 304.173L634.039 304.173L634.534 304.106ZM639.236 295.038L639.442 295.493L639.443 295.493L639.236 295.038ZM630.588 319.459L631.084 319.525L630.166 319.19L630.588 319.459ZM630.588 319.46L630.092 319.394L631.009 319.729L630.588 319.46ZM622.586 321.916L622.912 321.537L622.912 321.536L622.586 321.916ZM622.273 312.313L622.694 312.582L622.754 312.489L622.768 312.379L622.273 312.313ZM622.273 312.312L621.851 312.043L621.792 312.136L621.777 312.246L622.273 312.312ZM630.276 309.854L630.602 309.475L630.602 309.475L630.276 309.854ZM647.016 311.235L646.991 310.735L646.991 310.735L647.016 311.235ZM627.655 338.253L627.159 338.313L627.159 338.313L627.655 338.253ZM659.118 336.692L658.652 336.51L658.652 336.51L659.118 336.692ZM645.735 343.894L645.674 344.391L645.674 344.391L645.735 343.894ZM642.53 343.663L642.505 343.164L642.505 343.164L642.53 343.663ZM639.216 344.218L639.321 344.707L639.321 344.707L639.216 344.218ZM671.801 309.854L672.296 309.926L672.315 309.796L672.267 309.674L671.801 309.854ZM671.801 309.856L671.306 309.784L671.287 309.914L671.335 310.036L671.801 309.856ZM664.373 308.162L664.066 307.767L664.066 307.767L664.373 308.162ZM661.38 317.932L660.914 318.113L661.876 317.998L661.38 317.932ZM661.38 317.931L661.846 317.75L660.884 317.865L661.38 317.931ZM668.808 319.622L668.502 319.227L668.502 319.227L668.808 319.622ZM582.923 242.522L687.974 218.126L687.748 217.152L582.697 241.548L582.923 242.522ZM562.854 257.672C564.387 254.223 568.019 250.969 572.023 248.288C576.009 245.618 580.283 243.568 582.993 242.5L582.626 241.57C579.86 242.659 575.52 244.741 571.466 247.457C567.429 250.161 563.593 253.546 561.94 257.266L562.854 257.672ZM506.61 419.44C515.323 393.965 528.591 355.306 540.079 322.119C551.574 288.912 561.272 261.231 562.854 257.672L561.94 257.266C560.335 260.876 550.616 288.625 539.134 321.792C527.645 354.981 514.377 393.641 505.664 419.116L506.61 419.44ZM660.3 360.061L505.959 418.811L506.315 419.745L660.656 360.996L660.3 360.061ZM710.932 315.841L660.149 360.152L660.807 360.905L711.59 316.595L710.932 315.841ZM687.375 217.754L710.775 316.333L711.748 316.102L688.348 217.523L687.375 217.754ZM661.193 302.572C660.476 304.339 659.306 305.705 658.014 306.496C656.723 307.287 655.344 307.487 654.154 307.007L653.78 307.934C655.332 308.561 657.045 308.262 658.537 307.348C660.028 306.435 661.331 304.892 662.119 302.948L661.193 302.572ZM659.228 294.5C660.417 294.981 661.267 296.082 661.644 297.547C662.02 299.012 661.909 300.807 661.193 302.572L662.119 302.948C662.908 301.005 663.047 298.991 662.612 297.299C662.177 295.606 661.155 294.201 659.603 293.573L659.228 294.5ZM652.191 298.933C652.907 297.168 654.077 295.802 655.368 295.011C656.66 294.219 658.039 294.019 659.228 294.5L659.603 293.573C658.05 292.945 656.337 293.245 654.846 294.158C653.355 295.072 652.052 296.615 651.264 298.558L652.191 298.933ZM654.155 307.007C652.966 306.526 652.115 305.424 651.739 303.959C651.363 302.494 651.474 300.699 652.191 298.933L651.264 298.557C650.476 300.501 650.336 302.515 650.771 304.207C651.205 305.9 652.227 307.306 653.78 307.934L654.155 307.007ZM641.224 308.568C642.891 307.813 644.264 306.356 645.155 304.638C646.046 302.918 646.476 300.897 646.214 298.976L645.223 299.111C645.454 300.801 645.077 302.615 644.267 304.177C643.456 305.741 642.232 307.014 640.811 307.657L641.224 308.568ZM634.039 304.173C634.301 306.097 635.216 307.594 636.539 308.412C637.87 309.235 639.545 309.327 641.224 308.568L640.812 307.657C639.401 308.295 638.081 308.189 637.065 307.562C636.043 306.93 635.26 305.725 635.03 304.038L634.039 304.173ZM639.03 294.582C637.363 295.337 635.99 296.793 635.099 298.512C634.207 300.231 633.777 302.252 634.039 304.173L635.03 304.038C634.8 302.349 635.177 300.534 635.987 298.972C636.798 297.408 638.022 296.136 639.442 295.493L639.03 294.582ZM646.214 298.976C645.952 297.053 645.038 295.556 643.714 294.737C642.384 293.915 640.709 293.822 639.03 294.582L639.443 295.493C640.853 294.854 642.173 294.96 643.189 295.588C644.211 296.22 644.994 297.425 645.223 299.111L646.214 298.976ZM630.092 319.393L630.092 319.394L631.083 319.526L631.084 319.525L630.092 319.393ZM622.26 322.295C623.556 323.409 625.21 323.643 626.799 323.155C628.379 322.669 629.895 321.476 631.01 319.728L630.166 319.19C629.157 320.773 627.821 321.795 626.505 322.199C625.198 322.6 623.913 322.397 622.912 321.537L622.26 322.295ZM621.851 312.044C620.737 313.793 620.213 315.8 620.273 317.64C620.333 319.476 620.978 321.193 622.261 322.295L622.912 321.536C621.899 320.666 621.326 319.248 621.273 317.607C621.219 315.972 621.686 314.163 622.694 312.582L621.851 312.044ZM621.777 312.246L621.777 312.247L622.768 312.379L622.769 312.378L621.777 312.246ZM630.602 309.475C629.306 308.362 627.652 308.129 626.063 308.616C624.483 309.102 622.966 310.295 621.851 312.043L622.695 312.581C623.704 310.998 625.04 309.976 626.356 309.572C627.664 309.171 628.949 309.374 629.95 310.233L630.602 309.475ZM631.009 319.729C632.125 317.98 632.649 315.972 632.589 314.131C632.529 312.295 631.884 310.577 630.602 309.475L629.95 310.233C630.963 311.104 631.536 312.523 631.589 314.164C631.643 315.8 631.175 317.609 630.166 319.191L631.009 319.729ZM646.991 310.735C644.651 310.851 642.163 311.981 639.791 313.724C637.412 315.471 635.11 317.865 633.134 320.575C629.199 325.976 626.483 332.749 627.159 338.313L628.152 338.192C627.52 332.989 630.075 326.471 633.943 321.164C635.869 318.521 638.101 316.206 640.383 314.53C642.672 312.848 644.972 311.837 647.041 311.734L646.991 310.735ZM659.583 336.874C661.808 331.193 660.956 324.572 658.445 319.437C655.947 314.33 651.699 310.502 646.991 310.735L647.041 311.734C651.151 311.53 655.117 314.907 657.547 319.876C659.963 324.817 660.753 331.143 658.652 336.51L659.583 336.874ZM645.674 344.391C647.877 344.661 650.513 344.993 653.016 344.136C655.562 343.264 657.89 341.198 659.583 336.874L658.652 336.51C657.041 340.625 654.9 342.434 652.692 343.19C650.441 343.96 648.038 343.673 645.796 343.398L645.674 344.391ZM642.555 344.163C643.446 344.119 644.489 344.245 645.674 344.391L645.796 343.398C644.636 343.256 643.5 343.115 642.505 343.164L642.555 344.163ZM639.321 344.707C640.563 344.441 641.662 344.207 642.555 344.163L642.505 343.164C641.514 343.213 640.327 343.469 639.112 343.729L639.321 344.707ZM627.159 338.313C627.416 340.426 627.993 341.981 628.828 343.095C629.67 344.217 630.747 344.857 631.934 345.177C634.257 345.802 637.027 345.198 639.321 344.707L639.112 343.729C636.748 344.235 634.237 344.761 632.194 344.211C631.197 343.943 630.32 343.418 629.628 342.495C628.93 341.564 628.395 340.192 628.152 338.192L627.159 338.313ZM671.306 309.782L671.306 309.784L672.296 309.928L672.296 309.926L671.306 309.782ZM664.679 308.557C666.023 307.516 667.424 307.206 668.595 307.473C669.759 307.738 670.775 308.589 671.335 310.035L672.267 309.674C671.602 307.955 670.342 306.845 668.818 306.498C667.3 306.153 665.6 306.579 664.066 307.767L664.679 308.557ZM661.846 317.752C661.283 316.295 661.3 314.528 661.816 312.843C662.332 311.159 663.333 309.6 664.679 308.557L664.066 307.767C662.535 308.953 661.428 310.697 660.86 312.55C660.293 314.401 660.252 316.404 660.914 318.113L661.846 317.752ZM660.884 317.865L660.884 317.866L661.876 317.998L661.876 317.997L660.884 317.865ZM668.502 319.227C667.157 320.269 665.756 320.579 664.585 320.312C663.421 320.047 662.406 319.196 661.846 317.75L660.914 318.111C661.579 319.83 662.838 320.94 664.363 321.287C665.88 321.633 667.581 321.206 669.114 320.017L668.502 319.227ZM671.335 310.036C671.898 311.492 671.88 313.259 671.364 314.943C670.848 316.626 669.848 318.184 668.502 319.227L669.114 320.018C670.645 318.832 671.753 317.089 672.32 315.236C672.887 313.386 672.928 311.383 672.267 309.675L671.335 310.036Z" fill="#0069E4"/>
<path d="M343.332 396.874C340.544 396.077 342.171 388.244 343.332 384.427C388.971 394.882 481.94 416.291 488.712 418.282C495.483 420.274 504.478 419.112 508.129 418.282L662.967 357.044L708.274 315.72L687.861 217.639C708.938 212.328 753.481 201.508 763.04 200.711C772.599 199.915 773.993 211.665 773.495 217.639C760.717 252.822 733.566 327.868 727.193 346.588C720.82 365.308 711.925 373.971 708.274 375.963C647.533 393.057 524.758 427.543 519.58 428.738C513.107 430.231 511.614 431.227 500.163 431.227C488.712 431.227 346.818 397.869 343.332 396.874Z" fill="#0069E4" stroke="#0069E4"/>
<path d="M427.473 373.971L501.158 355.052L520.078 333.644L342.834 383.929L383.162 389.405C405.898 386.75 448.384 380.643 442.409 381.439C436.435 382.236 428.967 376.627 427.473 373.971Z" fill="#0069E4" stroke="#0069E4"/>
<path d="M494.188 411.312L519.58 334.141L500.163 354.554C502.32 357.044 506.137 362.719 504.146 365.507C501.656 368.993 488.712 372.478 470.29 376.959C455.553 380.543 403.077 386.086 378.681 388.41L494.188 411.312Z" fill="#0069E4" stroke="#0069E4"/>
<path d="M351.298 432.223C350.9 438.197 325.243 434.048 312.464 431.227C314.954 430.563 320.729 429.235 323.915 429.235C327.898 429.235 337.358 428.737 339.349 426.746C340.943 425.153 330.388 422.763 324.911 421.767L336.362 420.771C341.507 422.099 351.697 426.248 351.298 432.223Z" fill="#0069E4" stroke="#0069E4"/>
<path d="M336.86 420.771L320.928 422.763C319.766 422.763 317.144 423.161 315.949 424.754C314.754 426.348 319.766 428.405 322.422 429.235C320.928 429.899 317.144 431.227 313.958 431.227C309.975 431.227 290.06 424.754 294.541 422.763C299.022 420.771 302.009 420.771 310.473 418.78C317.244 417.187 330.885 419.444 336.86 420.771Z" fill="#0069E4" stroke="#0069E4"/>
<path d="M769.512 422.265C682.384 452.469 501.258 511.086 473.775 503.916V475.537L760.053 393.886C766.824 392.293 774.491 386.584 777.478 383.929C782.258 409.818 774.159 420.273 769.512 422.265Z" fill="#0069E4" stroke="#0069E4"/>
<path d="M211.894 448.652C219.063 459.008 309.145 473.214 353.29 479.023L211.894 448.652Z" fill="#0069E4" stroke="#0069E4"/>
<path d="M284.085 495.95V483.006C303.602 484.201 320.264 491.469 326.405 494.955C320.829 492.166 296.034 494.457 284.085 495.95Z" fill="#0069E4" stroke="#0069E4"/>
<path d="M323.417 538.768C318.24 539.166 294.873 536.112 284.085 534.785V502.423H313.958C318.737 501.228 331.218 513.874 336.86 520.346C337.657 513.973 328.23 504.082 323.417 499.933H331.383C334.703 502.921 341.64 510.389 342.835 516.363C344.328 523.831 339.349 530.802 337.856 532.793C336.362 534.785 329.89 538.27 323.417 538.768Z" fill="#0069E4" stroke="#0069E4"/>
<path d="M357.273 524.827C378.184 528.312 394.447 514.704 400.09 505.908L370.218 499.933L338.354 492.963C338.354 492.963 355.779 499.933 357.273 524.827Z" fill="#0069E4" stroke="#0069E4"/>
<path d="M284.085 573.619V546.733C334.669 561.47 351.962 544.244 354.286 533.789C404.571 546.235 410.545 506.406 412.039 507.899C413.234 509.094 434.111 514.372 444.401 516.861V531.797L284.085 573.619Z" fill="#0069E4" stroke="#0069E4"/>
<path d="M287.57 80.7235C287.57 108.495 269.561 145.383 244.753 139.97C217.37 133.996 191.481 103.517 191.481 75.7449C191.481 47.9731 240.272 33.9234 263.175 38.9023C287.647 38.9023 287.57 52.9517 287.57 80.7235Z" fill="#0069E4"/>
<path d="M414.528 105.617C368.226 105.617 272.136 235.562 219.859 148.932C289.562 183.286 324.911 82.7148 284.583 36.2465C302.507 19.4852 357.106 24.8851 373.703 36.2464C406.84 58.9305 409.052 61.3065 414.528 105.617Z" fill="#0069E4"/>
<path d="M430.46 154.409C446.392 165.03 419.354 211.664 384.158 211.664C348.962 211.664 292.051 195.861 292.051 170.839C292.051 145.817 379.332 105.119 414.528 105.119C395.111 121.051 408.056 139.473 430.46 154.409Z" fill="#0069E4"/>
<path d="M465.311 52.3448C471.286 64.2938 463.818 106.613 442.409 113.583C414.03 111.094 440.418 103.128 423.49 68.7746C397.73 16.498 351.796 34.2515 386.647 22.4725C415.026 18.9873 455.354 29.4426 465.311 52.3448Z" fill="#0069E4"/>
<path d="M374.201 223.613C374.698 234.069 374.698 246.018 374.698 257.469C374.698 273.899 381.669 277.013 381.669 278.877C386.15 289.333 370.296 281.646 364.243 277.384C328.894 252.49 303.502 252.49 257.698 273.899C242.762 259.46 125.264 447.63 125.264 405.835C139.702 330.656 156.974 302.277 179.034 254.482C196.957 215.647 209.667 172.053 218.864 147.439C262.677 187.269 289.064 146.443 299.022 170.839C314.864 209.652 331.383 224.609 374.201 223.613Z" fill="#0069E4"/>
<path d="M478.256 304.269C475.767 349.078 439.422 320.201 426.975 304.269C419.507 299.788 409.55 295.805 393.12 304.269C386.889 301.252 384.656 296.801 376.69 286.346C345.324 262.448 371.711 271.826 371.711 268.422C371.711 255.499 390.866 257.469 412.039 257.469C433.211 257.469 462.324 265.933 478.256 304.269Z" fill="#0069E4"/>
<path d="M391.129 336.133C383.163 365.01 357.771 353.061 351.299 340.614C326.903 316.716 325.907 321.695 279.107 325.678C258.196 325.678 251.226 319.418 248.239 317.214C239.984 311.123 233.8 305.265 229.319 286.346C223.209 260.546 244.256 267.427 292.052 267.427C352.688 267.427 393.407 313.356 391.129 336.133Z" fill="#0069E4"/>
<path d="M185.507 208.182C164.098 265.438 111.324 329.162 108.337 446.661C90.5773 445.24 77.4677 434.712 71.4933 426.746C66.0166 416.29 64.3049 386.418 62.5322 359.533C61.2192 339.618 58.0507 306.758 58.0507 263.941C58.0507 247.013 61.0379 242.532 74.4807 234.069C122.277 215.647 151.154 215.647 185.507 208.182Z" fill="#0069E4"/>
<path d="M335.864 344.598C335.864 353.56 338.353 367.003 330.885 367.003C312.962 370.986 241.766 390.899 237.285 390.899C218.013 390.899 178.038 362.022 145.676 434.216C120.783 428.739 130.242 395.38 135.719 377.954C135.719 365.229 205.616 282.088 233.8 283.36C232.306 290.33 223.344 323.189 267.157 338.624C311.468 343.867 335.864 325.516 335.864 344.598Z" fill="#0069E4"/>
<path d="M193.472 439.193C198.949 486.989 203.927 523.831 169.575 523.831C160.907 523.831 152.149 518.355 139.204 503.418C126.177 488.387 132.014 457.968 144.183 434.712C162.106 406.333 189.489 377.954 230.315 393.388C219.86 396.873 189.249 402.33 193.472 439.193Z" fill="#0069E4"/>
<path d="M206.417 534.784C185.507 534.784 169.077 526.321 156.63 520.346C141.195 510.389 161.111 507.128 161.111 488.98C161.111 470.832 183.901 443.674 192.975 443.674C194.468 455.623 200.941 464.584 206.417 468.567C206.417 484.997 206.417 524.329 206.417 534.784Z" fill="#0069E4"/>
<path d="M154.637 452.138C154.637 468.649 168.954 481.68 161.111 492.465C155.109 500.719 121.147 511.384 115.306 511.384C108.919 511.384 126.346 496.418 126.259 476.533C126.156 452.635 123.934 421.606 125.263 406.333C127.254 383.431 155.602 387.414 169.076 387.414C155.135 413.303 154.637 422.991 154.637 452.138Z" fill="#0069E4"/>
<path d="M131.238 487.983C131.238 513.382 160.115 494.954 114.809 511.383C107.581 511.356 63.0294 516.363 42.6165 500.929C27.1823 476.036 31.1728 463.63 31.6636 459.605C33.3555 445.731 37.219 457.16 42.6165 457.116C45.1606 457.095 51.5783 462.532 51.5783 452.137C51.5783 422.265 61.0383 452.092 92.9017 463.63C124.765 475.167 131.238 456.912 131.238 487.983Z" fill="#0069E4"/>
<path d="M73.4847 457.116C122.774 483.006 62.5103 483.006 49.5868 483.006C36.6633 483.006 26.6844 465.58 14.2378 426.746C12.2463 401.354 13.7609 371.482 26.6844 371.482C39.6079 371.482 19.2165 401.852 73.4847 457.116Z" fill="#0069E4"/>
<path d="M55.0632 470.061C76.7959 478.766 127.838 501.542 119.547 505.229C113.965 507.712 83.1393 515.946 55.0632 506.904C41.4433 502.517 24.0125 485.735 19.7144 477.529C8.76125 456.618 5.27608 437.201 8.2633 430.231C18.2205 459.605 29.0887 459.657 55.0632 470.061Z" fill="#0069E4"/>
<rect x="74.9784" y="531.299" width="48.7916" height="197.158" fill="#0069E4"/>
<rect x="85.663" y="547.735" width="123.046" height="45.6675" transform="rotate(10.1623 85.663 547.735)" fill="#0069E4"/>
<rect x="221.353" y="480.516" width="47.7959" height="278.809" fill="#0069E4"/>
<ellipse cx="99.3742" cy="727.462" rx="24.3958" ry="20.9107" fill="#0069E4"/>
<ellipse cx="245.251" cy="758.33" rx="23.8979" ry="20.9107" fill="#0069E4"/>
<path d="M206.652 569.506L206.238 615.844L189.58 612.586L206.652 569.506Z" fill="#0069E4"/>
<path d="M269.149 480.516L221.353 485.993L221.353 471.554L245.749 477.031L269.149 480.516Z" fill="#0069E4"/>
<path d="M74.9784 526.321L206.417 545.24L206.417 555.198L206.417 564.159L74.9785 539.265L74.9784 526.321Z" fill="#0069E4"/>
<path d="M203.43 545.738C202.13 553.463 151.673 550.331 136.217 547.73C120.761 545.129 74.1763 534.544 75.4761 526.819C120.783 531.3 134.723 518.853 141.693 518.853C149.659 526.819 157.625 538.768 203.43 545.738Z" fill="#0069E4"/>
<rect x="460.333" y="526.321" width="45.8044" height="270.843" fill="#0069E4"/>
<rect x="530.035" y="511.385" width="42.8171" height="175.252" fill="#0069E4"/>
<ellipse cx="483.235" cy="797.164" rx="22.9022" ry="17.9235" fill="#0069E4"/>
<ellipse cx="551.444" cy="684.645" rx="21.4086" ry="17.9235" fill="#0069E4"/>
<path d="M506.137 518.867C506.137 544.757 506.137 542.765 501.158 549.098C492.538 558.13 477.303 557.904 468.077 549.098C459.337 540.261 460.333 542.253 460.333 519.35C479.252 526.819 485.226 527.316 506.137 518.867Z" fill="#0069E4"/>
<path d="M572.852 499.436L572.852 524.827L530.035 511.384L572.852 499.436Z" fill="#0069E4"/>
<rect x="722.214" y="455.623" width="45.8044" height="260.886" fill="#0069E4"/>
<ellipse cx="745.117" cy="716.508" rx="22.9022" ry="19.915" fill="#0069E4"/>
<path d="M768.019 441.682L768.018 474.044L722.214 455.622L768.019 441.682Z" fill="#0069E4"/>
<rect x="284.085" y="580.091" width="29.8724" height="137.413" fill="#0069E4"/>
<rect x="284.085" y="580.091" width="152.59" height="44.2449" transform="rotate(-14.5446 284.085 580.091)" fill="#0069E4"/>
<rect x="399.592" y="550.219" width="44.8086" height="146.375" fill="#0069E4"/>
<ellipse cx="421.996" cy="695.598" rx="22.4043" ry="13.9405" fill="#0069E4"/>
<path d="M444.401 537.274V552.21L413.533 548.227L444.401 537.274Z" fill="#0069E4"/>
<path d="M313.958 715.758C313.958 724.166 301.471 732.454 294.748 733.436C283.702 732.454 285.143 735.892 285.143 726.07C285.143 716.249 284.663 702.009 291.386 697.589C298.813 697.589 313.958 707.351 313.958 715.758Z" fill="#0069E4"/>
<rect x="284.085" y="716.509" width="10.9532" height="16.9277" fill="#0069E4"/>
<rect x="224.09" y="424.476" width="268.901" height="28.6799" transform="rotate(11.0857 224.09 424.476)" fill="#0069E4"/>
<rect x="484.231" y="475.987" width="287.885" height="26.6956" transform="rotate(-16.0534 484.231 475.987)" fill="#0069E4"/>
<path d="M515.099 487.486C538.997 487.486 491.261 504.312 482.737 504.312C468.797 501.925 469.294 498.842 469.294 491.967C469.294 485.093 476.205 479.521 484.729 479.521C493.253 479.521 507.133 481.117 515.099 487.486Z" fill="#0069E4"/>
<path d="M209.902 420.273C211.097 423.46 219.528 424.588 223.843 424.754L218.366 452.137C211.595 450.544 208.906 445.499 208.409 443.176C207.214 434.811 208.906 424.422 209.902 420.273Z" fill="#0069E4" stroke="#0069E4"/>
<path d="M473.277 505.41L353.29 479.023C409.384 479.852 518.285 484.101 505.141 494.457C491.997 504.813 478.422 506.074 473.277 505.41Z" fill="#0069E4" stroke="#0069E4"/>
<path d="M773.495 382.435C774.69 388.808 579.159 442.18 481.243 468.069C443.26 461.564 389.355 452.122 339.847 443.046C347.315 444.406 363.148 444.344 366.732 433.218C370.317 422.092 338.686 414.31 322.422 411.81C325.077 409.652 331.085 405.736 333.873 407.329C337.358 409.32 456.35 442.678 497.175 444.669C538.001 446.661 687.363 396.873 707.278 390.899C723.21 386.119 727.857 376.295 728.189 371.98C742.793 372.81 772.3 376.062 773.495 382.435Z" fill="#0069E4" stroke="#0069E4"/>
<path d="M212.392 416.291C212.392 413.104 287.073 394.052 324.413 384.925V400.966C330.571 405.362 339.484 412.604 329.392 412.308C312.464 411.81 286.575 416.291 276.617 420.771C268.651 424.356 277.945 429.899 283.588 432.223C259.856 428.24 212.392 419.477 212.392 416.291Z" fill="#0069E4"/>
<path d="M324.413 384.925C287.073 394.052 212.392 413.104 212.392 416.291C212.392 419.477 259.856 428.24 283.588 432.223C277.945 429.899 268.651 424.356 276.617 420.771C286.575 416.291 312.464 411.81 329.392 412.308C342.934 412.706 322.256 399.529 319.932 397.869C316.613 398.035 324.413 410.416 324.413 406.831C324.413 403.246 324.413 389.405 324.413 384.925Z" stroke="#0069E4"/>
<path d="M283.09 432.223L348.311 444.67" stroke="#0069E4"/>
</svg>
