<svg width="1024" height="1024" viewBox="0 0 1024 1024" fill="none" xmlns="http://www.w3.org/2000/svg">
<g clip-path="url(#clip0_10_10308)">
<rect width="1024" height="1024" fill="white"/>
<rect width="1024" height="1024" fill="#34AADC"/>
<path d="M343.188 441.276L350.317 359.056C352.181 337.567 322.443 328.775 301.247 360.449C280.049 392.123 255.21 397.405 245.484 406.446C235.757 415.487 215.71 413.278 265.83 470.339C305.927 515.989 334.109 469.984 343.188 441.276Z" fill="white"/>
<path d="M589.759 335.599C597.365 378.149 515.676 356.004 491.682 353.923C467.687 351.842 428.894 394.086 430.348 377.315C431.802 360.545 459.06 288.494 483.055 290.575C503.037 277.246 551.352 338.858 589.759 335.599Z" fill="white"/>
<path d="M685.27 629.11C690.094 671.306 563.594 731.52 512.508 727.09C461.423 722.66 421.913 702.56 425.582 660.247C429.251 617.934 442.422 594.401 493.507 598.831C556.262 721.877 674.238 532.606 685.27 629.11Z" fill="white"/>
<path d="M628.981 618.325C633.216 634.081 567.974 668.513 552.718 672.614C537.462 676.714 497.124 684.363 492.889 668.607C488.654 652.851 479.514 649.152 496.57 626.155C504.413 628.238 564.266 646.146 628.981 618.325Z" fill="white"/>
<path d="M446.897 783.53C153.592 632.425 276.072 886.369 189.197 802.602C102.321 718.836 274.288 692.59 360.391 603.291C453.701 357.689 486.428 490.449 573.303 574.216C478.709 633.79 533 694.23 446.897 783.53Z" fill="white"/>
<path d="M151.057 737.637C221.387 795.039 276.219 817.967 236.521 844.788C196.822 871.61 135.826 846.073 92.1867 781.482C46.322 686.194 103.445 628.076 171.703 608.108C119.737 648.317 134.437 712.191 151.057 737.637Z" fill="white"/>
<path d="M329.977 823.753C311.406 880.506 233.3 917.506 196.921 914.351C160.542 911.197 133.32 877.052 136.944 835.255C140.569 793.458 177.629 756.885 215.385 750.275C260.759 748.091 321.404 732.64 329.977 823.753Z" fill="white"/>
<path d="M210.932 907.042C210.269 902.874 228.296 872.783 322.973 863.107C364.294 856.806 376.829 881.552 377.493 885.72C379.924 900.993 388.414 896.076 343.844 903.17C154.717 923.4 211.596 911.211 210.932 907.042Z" fill="white"/>
<path d="M532.022 888.811C540.495 905.078 510.417 897.764 468.512 899.307C451.741 897.853 452.51 897.919 444.35 884.834C438.595 875.604 453.238 851.527 486.686 867.465C513.138 860.957 532.961 877.975 532.022 888.811Z" fill="white"/>
<path d="M490.043 807.04C482.387 895.333 595.583 908.914 458.562 893.267C444.371 892.036 409.537 834.418 415.533 765.278C438.384 686.304 448.505 687.482 460.708 694.829C592.22 774.01 503.305 654.11 490.043 807.04Z" fill="white"/>
<path d="M412.635 793.267C407.424 827.099 377.172 857.004 334.601 853.312C333.345 867.794 403.984 746.861 257.916 748.315C260.355 720.192 317.919 674.445 360.49 678.136C403.061 681.828 433.097 660.429 412.635 793.267Z" fill="white"/>
<path d="M575.213 411.057C663.009 543.87 657.856 548.38 579.519 578.52C447.077 629.476 349.638 554.233 330.388 504.201C415.912 397.243 321.078 389.02 406.804 361.153C463.955 342.575 528.036 347.191 575.213 411.057Z" fill="white"/>
<path d="M666.663 452.877C679.128 509.968 636.001 561.767 611.748 559.664C587.496 557.561 559.148 525.768 561.363 500.226C563.578 474.683 575.851 441.707 598.053 451.634C638.007 463.1 653.702 439.515 666.663 452.877Z" fill="white"/>
<path d="M653.069 893.959C652.609 899.268 638.188 900.67 621.548 899.227C580.727 895.687 575.981 901.566 564.988 881.786C608.699 887.93 617.811 898.898 614.589 849.203C627.232 850.299 653.986 883.381 653.069 893.959Z" fill="white"/>
<path d="M537 138V462.444C537 473.2 541.249 483.516 548.813 491.122C556.377 498.727 566.636 503 577.333 503H900" stroke="white" stroke-width="25" stroke-linecap="round" stroke-linejoin="round"/>
<path d="M576 138C576.264 225.362 601.115 399.782 698.243 400.994C698.795 401.001 699.262 400.552 699.262 400V146.554C699.262 145.368 700.998 145.109 701.29 146.259C717.35 209.56 760.005 333.03 819.123 335.029C819.679 335.048 820.138 334.597 820.138 334.041V143.953C820.138 142.825 821.813 142.496 822.237 143.541C835.833 177.038 881.803 256.585 910 257.184" stroke="white" stroke-width="18" stroke-linecap="round"/>
<path d="M675.307 485.187C672.397 505.864 664.257 524.305 660.55 530.942" stroke="#34AADC" stroke-width="14" stroke-linecap="round"/>
<path d="M512 289.533C524.49 300.133 551.925 320.65 561.749 317.911" stroke="#34AADC" stroke-width="14" stroke-linecap="round"/>
</g>
<defs>
<clipPath id="clip0_10_10308">
<rect width="1024" height="1024" fill="white"/>
</clipPath>
</defs>
</svg>
